<?xml version="1.0" encoding="UTF-8" standalone="no"?>
<!-- Created with Inkscape (http://www.inkscape.org/) -->

<svg
   xmlns:dc="http://purl.org/dc/elements/1.1/"
   xmlns:cc="http://creativecommons.org/ns#"
   xmlns:rdf="http://www.w3.org/1999/02/22-rdf-syntax-ns#"
   xmlns:svg="http://www.w3.org/2000/svg"
   xmlns="http://www.w3.org/2000/svg"
   xmlns:sodipodi="http://sodipodi.sourceforge.net/DTD/sodipodi-0.dtd"
   xmlns:inkscape="http://www.inkscape.org/namespaces/inkscape"
   version="1.1"
   id="svg3734"
   width="360"
   height="360"
   viewBox="0 0 360 360"
   sodipodi:docname="opensail.svg"
   inkscape:version="0.92.1 r15371">
  <metadata
     id="metadata3740">
    <rdf:RDF>
      <cc:Work
         rdf:about="">
        <dc:format>image/svg+xml</dc:format>
        <dc:type
           rdf:resource="http://purl.org/dc/dcmitype/StillImage" />
        <dc:title></dc:title>
      </cc:Work>
    </rdf:RDF>
  </metadata>
  <defs
     id="defs3738" />
  <sodipodi:namedview
     pagecolor="#ffffff"
     bordercolor="#666666"
     borderopacity="1"
     objecttolerance="10"
     gridtolerance="10"
     guidetolerance="10"
     inkscape:pageopacity="0"
     inkscape:pageshadow="2"
     inkscape:window-width="1440"
     inkscape:window-height="1696"
     id="namedview3736"
     showgrid="false"
     inkscape:zoom="11.313709"
     inkscape:cx="141.16334"
     inkscape:cy="115.94158"
     inkscape:window-x="0"
     inkscape:window-y="48"
     inkscape:window-maximized="0"
     inkscape:current-layer="svg3734" />
  <path
     style="fill:#000000;stroke-width:1.33333337"
     d="m 155.12923,301.06961 c 0.35301,-0.57118 1.20634,-1.19761 -0.80413,-1.93218 -1.64604,-0.86717 -1.92678,-1.3823 -0.74666,-2.71611 1.59998,-1.62105 1.43913,-2.01287 -0.51753,-2.57449 -1.25022,-0.35885 -1.84435,-0.6338 -0.57343,-2.42886 0.81625,-1.13679 -1.37613,-2.45385 -4.39156,-3.61409 -20.7993,-10.02057 -46.22767,1.64242 -48.798131,-22.16699 1.575941,-11.51745 11.912521,-22.1155 21.202641,-23.59788 4.51986,-0.61952 6.62611,-0.31702 8.10749,1.16436 1.10072,1.10071 2.64564,1.60308 3.43316,1.11636 0.84878,-0.52456 1.04443,-0.25808 0.48048,0.65442 -0.8427,1.36354 0.71366,2.12725 3.49136,1.71324 0.52362,-0.078 0.57166,0.84932 0.1068,2.06082 -0.62642,1.63247 -0.35512,1.92287 1.04799,1.12174 1.47763,-0.84368 1.55024,-0.70968 0.33077,0.61041 -0.85936,0.93028 -1.24516,2.51831 -0.85734,3.52895 0.38782,1.01062 -0.10907,1.85576 -1.10419,1.87806 -1.18752,0.0267 -0.99779,0.513 0.55205,1.41528 1.29876,0.75611 2.01671,1.93243 1.59546,2.61404 -0.42127,0.68162 -2.34314,-0.22316 -4.27082,-2.0106 -1.92768,-1.78745 -3.93276,-2.98545 -4.45573,-2.66224 -0.52297,0.32322 -1.30419,-0.3331 -1.73603,-1.45848 -0.49864,-1.29942 -2.11035,-1.90485 -4.41647,-1.659 -4.58151,0.48842 -17.89167,11.61441 -12.30111,16.11853 43.42769,33.44383 100.24586,-16.29844 139.52945,-23.87011 0.5586,11.98032 -19.61292,28.41362 -27.63951,35.72402 -16.65159,13.72867 -38.78091,21.01711 -58.95342,21.66024 -4.92439,0.192 -8.6646,-0.11826 -8.31159,-0.68944 z m -25.15721,-39.42278 c -0.50111,-0.50111 -0.91111,-2.13968 -0.91111,-3.64127 0,-2.57404 0.13013,-2.6 2.27619,-0.45397 1.55276,1.55274 1.84233,2.71005 0.91112,3.64126 -0.7508,0.7508 -1.77508,0.95508 -2.2762,0.45398 z m 7.03968,-36.31855 c -3.11511,-1.52008 -3.40992,-2.43449 -3.729,-11.56601 -0.19056,-5.4535 0.17346,-9.91544 0.80896,-9.91544 0.29389,0 0.83616,4.27811 4.08361,7.53403 3.90636,3.91656 3.85691,3.93768 6.30756,-12.28473 0.93653,-70.05681 -2.82823,-72.69205 -10.69534,-101.608233 -2.05186,-7.530744 -4.25471,-14.016153 -4.89523,-14.412023 -3.30959,-8.301965 -8.74375,-24.193928 -13.42647,-29.686994 -3.8586,-4.286298 -7.73818,-12.569012 -7.73818,-16.520623 0,-2.246297 -1.41222,-1.471881 -0.16777,-0.227437 40.3211,31.07647 86.27804,61.098575 121.73336,95.79411 13.43108,15.67395 42.55698,58.25193 38.00363,78.84725 -0.73377,6.26918 -5.60041,12.31666 -12.26109,12.77432 -1.11281,0.005 -0.57711,0.70255 -0.0485,-5.50392 0.37164,-6.26085 0.28046,-6.50495 -0.8365,-9.89575 -2.61089,-5.14946 -8.55075,-5.80521 -12.89187,-6.60877 -37.0603,-6.94428 -73.5476,25.18826 -104.2471,23.28022 z"
     id="path3744"
     inkscape:connector-curvature="0"
     sodipodi:nodetypes="sccscccccccccsccccccccsccccscsssccsssccccsccccccccc" />
</svg>
